<?xml version="1.0" encoding="UTF-8" standalone="no"?>
<!DOCTYPE svg PUBLIC "-//W3C//DTD SVG 1.1//EN"
 "http://www.w3.org/Graphics/SVG/1.1/DTD/svg11.dtd">
<!-- Generated by graphviz version 2.36.0 (20140111.2315)
 -->
<!-- Title: controllers_diagram Pages: 1 -->
<svg width="590pt" height="546pt"
 viewBox="0.00 0.00 590.00 546.00" xmlns="http://www.w3.org/2000/svg" xmlns:xlink="http://www.w3.org/1999/xlink">
<g id="graph0" class="graph" transform="scale(1 1) rotate(0) translate(4 542)">
<title>controllers_diagram</title>
<polygon fill="none" stroke="none" points="-4,4 -4,-542 586,-542 586,4 -4,4"/>
<!-- _diagram_info -->
<g id="node1" class="node"><title>_diagram_info</title>
<text text-anchor="start" x="376" y="-447.6" font-family="Times,serif" font-size="13.00">Controllers diagram</text>
<text text-anchor="start" x="376" y="-433.6" font-family="Times,serif" font-size="13.00">Date: Nov 28 2016 &#45; 21:25</text>
<text text-anchor="start" x="376" y="-419.6" font-family="Times,serif" font-size="13.00">Migration version: 20161119205921</text>
<text text-anchor="start" x="376" y="-405.6" font-family="Times,serif" font-size="13.00">Generated by RailRoady 1.5.2</text>
<text text-anchor="start" x="376" y="-391.6" font-family="Times,serif" font-size="13.00">http://railroady.prestonlee.com</text>
</g>
<!-- DiseasesController -->
<g id="node2" class="node"><title>DiseasesController</title>
<path fill="none" stroke="black" d="M12,-64.5C12,-64.5 107,-64.5 107,-64.5 113,-64.5 119,-70.5 119,-76.5 119,-76.5 119,-160.5 119,-160.5 119,-166.5 113,-172.5 107,-172.5 107,-172.5 12,-172.5 12,-172.5 6,-172.5 0,-166.5 0,-160.5 0,-160.5 0,-76.5 0,-76.5 0,-70.5 6,-64.5 12,-64.5"/>
<text text-anchor="middle" x="59.5" y="-157.3" font-family="Times,serif" font-size="14.00">DiseasesController</text>
<polyline fill="none" stroke="black" points="0,-149.5 119,-149.5 "/>
<text text-anchor="start" x="8" y="-134.3" font-family="Times,serif" font-size="14.00">import</text>
<text text-anchor="start" x="8" y="-119.3" font-family="Times,serif" font-size="14.00">index</text>
<polyline fill="none" stroke="black" points="0,-111.5 119,-111.5 "/>
<polyline fill="none" stroke="black" points="0,-87.5 119,-87.5 "/>
<text text-anchor="start" x="8" y="-72.3" font-family="Times,serif" font-size="14.00">_layout</text>
</g>
<!-- AdminsController -->
<g id="node3" class="node"><title>AdminsController</title>
<path fill="none" stroke="black" d="M156,-64.5C156,-64.5 258,-64.5 258,-64.5 264,-64.5 270,-70.5 270,-76.5 270,-76.5 270,-340.5 270,-340.5 270,-346.5 264,-352.5 258,-352.5 258,-352.5 156,-352.5 156,-352.5 150,-352.5 144,-346.5 144,-340.5 144,-340.5 144,-76.5 144,-76.5 144,-70.5 150,-64.5 156,-64.5"/>
<text text-anchor="middle" x="207" y="-337.3" font-family="Times,serif" font-size="14.00">AdminsController</text>
<polyline fill="none" stroke="black" points="144,-329.5 270,-329.5 "/>
<text text-anchor="start" x="152" y="-314.3" font-family="Times,serif" font-size="14.00">allusers</text>
<text text-anchor="start" x="152" y="-299.3" font-family="Times,serif" font-size="14.00">config_update</text>
<text text-anchor="start" x="152" y="-284.3" font-family="Times,serif" font-size="14.00">configuration</text>
<text text-anchor="start" x="152" y="-269.3" font-family="Times,serif" font-size="14.00">confirm_search</text>
<text text-anchor="start" x="152" y="-254.3" font-family="Times,serif" font-size="14.00">getcsv</text>
<text text-anchor="start" x="152" y="-239.3" font-family="Times,serif" font-size="14.00">histogram</text>
<text text-anchor="start" x="152" y="-224.3" font-family="Times,serif" font-size="14.00">managegrps</text>
<text text-anchor="start" x="152" y="-209.3" font-family="Times,serif" font-size="14.00">performassigngroup</text>
<text text-anchor="start" x="152" y="-194.3" font-family="Times,serif" font-size="14.00">promote</text>
<text text-anchor="start" x="152" y="-179.3" font-family="Times,serif" font-size="14.00">promotewithgroup</text>
<text text-anchor="start" x="152" y="-164.3" font-family="Times,serif" font-size="14.00">rearrange</text>
<text text-anchor="start" x="152" y="-149.3" font-family="Times,serif" font-size="14.00">search</text>
<text text-anchor="start" x="152" y="-134.3" font-family="Times,serif" font-size="14.00">show</text>
<text text-anchor="start" x="152" y="-119.3" font-family="Times,serif" font-size="14.00">statistics</text>
<polyline fill="none" stroke="black" points="144,-111.5 270,-111.5 "/>
<polyline fill="none" stroke="black" points="144,-87.5 270,-87.5 "/>
<text text-anchor="start" x="152" y="-72.3" font-family="Times,serif" font-size="14.00">_layout</text>
</g>
<!-- SubmissionsController -->
<g id="node4" class="node"><title>SubmissionsController</title>
<path fill="none" stroke="black" d="M316,-0.5C316,-0.5 433,-0.5 433,-0.5 439,-0.5 445,-6.5 445,-12.5 445,-12.5 445,-82.5 445,-82.5 445,-88.5 439,-94.5 433,-94.5 433,-94.5 316,-94.5 316,-94.5 310,-94.5 304,-88.5 304,-82.5 304,-82.5 304,-12.5 304,-12.5 304,-6.5 310,-0.5 316,-0.5"/>
<text text-anchor="middle" x="374.5" y="-79.3" font-family="Times,serif" font-size="14.00">SubmissionsController</text>
<polyline fill="none" stroke="black" points="304,-71.5 445,-71.5 "/>
<polyline fill="none" stroke="black" points="304,-47.5 445,-47.5 "/>
<polyline fill="none" stroke="black" points="304,-23.5 445,-23.5 "/>
<text text-anchor="start" x="312" y="-8.3" font-family="Times,serif" font-size="14.00">_layout</text>
</g>
<!-- HomeController -->
<g id="node5" class="node"><title>HomeController</title>
<path fill="none" stroke="black" d="M460,-128.5C460,-128.5 542,-128.5 542,-128.5 548,-128.5 554,-134.5 554,-140.5 554,-140.5 554,-209.5 554,-209.5 554,-215.5 548,-221.5 542,-221.5 542,-221.5 460,-221.5 460,-221.5 454,-221.5 448,-215.5 448,-209.5 448,-209.5 448,-140.5 448,-140.5 448,-134.5 454,-128.5 460,-128.5"/>
<text text-anchor="middle" x="501" y="-206.3" font-family="Times,serif" font-size="14.00">HomeController</text>
<polyline fill="none" stroke="black" points="448,-198.5 554,-198.5 "/>
<text text-anchor="start" x="456" y="-183.3" font-family="Times,serif" font-size="14.00">show</text>
<polyline fill="none" stroke="black" points="448,-175.5 554,-175.5 "/>
<polyline fill="none" stroke="black" points="448,-151.5 554,-151.5 "/>
<text text-anchor="start" x="456" y="-136.3" font-family="Times,serif" font-size="14.00">_layout</text>
</g>
<!-- GroupsController -->
<g id="node6" class="node"><title>GroupsController</title>
<path fill="none" stroke="black" d="M316,-128.5C316,-128.5 404,-128.5 404,-128.5 410,-128.5 416,-134.5 416,-140.5 416,-140.5 416,-344.5 416,-344.5 416,-350.5 410,-356.5 404,-356.5 404,-356.5 316,-356.5 316,-356.5 310,-356.5 304,-350.5 304,-344.5 304,-344.5 304,-140.5 304,-140.5 304,-134.5 310,-128.5 316,-128.5"/>
<text text-anchor="middle" x="360" y="-341.3" font-family="Times,serif" font-size="14.00">GroupsController</text>
<polyline fill="none" stroke="black" points="304,-333.5 416,-333.5 "/>
<text text-anchor="start" x="312" y="-318.3" font-family="Times,serif" font-size="14.00">adduser</text>
<text text-anchor="start" x="312" y="-303.3" font-family="Times,serif" font-size="14.00">create</text>
<text text-anchor="start" x="312" y="-288.3" font-family="Times,serif" font-size="14.00">destroy</text>
<text text-anchor="start" x="312" y="-273.3" font-family="Times,serif" font-size="14.00">edit</text>
<text text-anchor="start" x="312" y="-258.3" font-family="Times,serif" font-size="14.00">group_params</text>
<text text-anchor="start" x="312" y="-243.3" font-family="Times,serif" font-size="14.00">index</text>
<text text-anchor="start" x="312" y="-228.3" font-family="Times,serif" font-size="14.00">new</text>
<text text-anchor="start" x="312" y="-213.3" font-family="Times,serif" font-size="14.00">performadd</text>
<text text-anchor="start" x="312" y="-198.3" font-family="Times,serif" font-size="14.00">quickadduser</text>
<text text-anchor="start" x="312" y="-183.3" font-family="Times,serif" font-size="14.00">update</text>
<polyline fill="none" stroke="black" points="304,-175.5 416,-175.5 "/>
<polyline fill="none" stroke="black" points="304,-151.5 416,-151.5 "/>
<text text-anchor="start" x="312" y="-136.3" font-family="Times,serif" font-size="14.00">_layout</text>
</g>
<!-- SessionsController -->
<g id="node7" class="node"><title>SessionsController</title>
<path fill="none" stroke="black" d="M236,-384.5C236,-384.5 331,-384.5 331,-384.5 337,-384.5 343,-390.5 343,-396.5 343,-396.5 343,-525.5 343,-525.5 343,-531.5 337,-537.5 331,-537.5 331,-537.5 236,-537.5 236,-537.5 230,-537.5 224,-531.5 224,-525.5 224,-525.5 224,-396.5 224,-396.5 224,-390.5 230,-384.5 236,-384.5"/>
<text text-anchor="middle" x="283.5" y="-522.3" font-family="Times,serif" font-size="14.00">SessionsController</text>
<polyline fill="none" stroke="black" points="224,-514.5 343,-514.5 "/>
<text text-anchor="start" x="232" y="-499.3" font-family="Times,serif" font-size="14.00">create</text>
<text text-anchor="start" x="232" y="-484.3" font-family="Times,serif" font-size="14.00">destroy</text>
<text text-anchor="start" x="232" y="-469.3" font-family="Times,serif" font-size="14.00">download_help</text>
<text text-anchor="start" x="232" y="-454.3" font-family="Times,serif" font-size="14.00">new</text>
<text text-anchor="start" x="232" y="-439.3" font-family="Times,serif" font-size="14.00">tutorial</text>
<polyline fill="none" stroke="black" points="224,-431.5 343,-431.5 "/>
<polyline fill="none" stroke="black" points="224,-407.5 343,-407.5 "/>
<text text-anchor="start" x="232" y="-392.3" font-family="Times,serif" font-size="14.00">_layout</text>
</g>
<!-- UsersController -->
<g id="node8" class="node"><title>UsersController</title>
<path fill="none" stroke="black" d="M28,-208.5C28,-208.5 107,-208.5 107,-208.5 113,-208.5 119,-214.5 119,-220.5 119,-220.5 119,-334.5 119,-334.5 119,-340.5 113,-346.5 107,-346.5 107,-346.5 28,-346.5 28,-346.5 22,-346.5 16,-340.5 16,-334.5 16,-334.5 16,-220.5 16,-220.5 16,-214.5 22,-208.5 28,-208.5"/>
<text text-anchor="middle" x="67.5" y="-331.3" font-family="Times,serif" font-size="14.00">UsersController</text>
<polyline fill="none" stroke="black" points="16,-323.5 119,-323.5 "/>
<text text-anchor="start" x="24" y="-308.3" font-family="Times,serif" font-size="14.00">create</text>
<text text-anchor="start" x="24" y="-293.3" font-family="Times,serif" font-size="14.00">new</text>
<text text-anchor="start" x="24" y="-278.3" font-family="Times,serif" font-size="14.00">show</text>
<polyline fill="none" stroke="black" points="16,-270.5 119,-270.5 "/>
<polyline fill="none" stroke="black" points="16,-246.5 119,-246.5 "/>
<text text-anchor="start" x="24" y="-231.3" font-family="Times,serif" font-size="14.00">_layout</text>
<text text-anchor="start" x="24" y="-216.3" font-family="Times,serif" font-size="14.00">user_params</text>
</g>
<!-- ApplicationController -->
<g id="node9" class="node"><title>ApplicationController</title>
<path fill="none" stroke="black" d="M60,-384.5C60,-384.5 172,-384.5 172,-384.5 178,-384.5 184,-390.5 184,-396.5 184,-396.5 184,-510.5 184,-510.5 184,-516.5 178,-522.5 172,-522.5 172,-522.5 60,-522.5 60,-522.5 54,-522.5 48,-516.5 48,-510.5 48,-510.5 48,-396.5 48,-396.5 48,-390.5 54,-384.5 60,-384.5"/>
<text text-anchor="middle" x="116" y="-507.3" font-family="Times,serif" font-size="14.00">ApplicationController</text>
<polyline fill="none" stroke="black" points="48,-499.5 184,-499.5 "/>
<text text-anchor="start" x="56" y="-484.3" font-family="Times,serif" font-size="14.00">choose_to_bool</text>
<text text-anchor="start" x="56" y="-469.3" font-family="Times,serif" font-size="14.00">current_user</text>
<text text-anchor="start" x="56" y="-454.3" font-family="Times,serif" font-size="14.00">reason_to_index</text>
<text text-anchor="start" x="56" y="-439.3" font-family="Times,serif" font-size="14.00">update_session</text>
<polyline fill="none" stroke="black" points="48,-431.5 184,-431.5 "/>
<polyline fill="none" stroke="black" points="48,-407.5 184,-407.5 "/>
<text text-anchor="start" x="56" y="-392.3" font-family="Times,serif" font-size="14.00">_layout</text>
</g>
</g>
</svg>
