<?xml version="1.0" encoding="UTF-8" standalone="no"?>
<!DOCTYPE svg PUBLIC "-//W3C//DTD SVG 1.1//EN"
 "http://www.w3.org/Graphics/SVG/1.1/DTD/svg11.dtd">
<!-- Generated by graphviz version 2.36.0 (20140111.2315)
 -->
<!-- Title: models_diagram Pages: 1 -->
<svg width="536pt" height="612pt"
 viewBox="0.00 0.00 536.00 612.00" xmlns="http://www.w3.org/2000/svg" xmlns:xlink="http://www.w3.org/1999/xlink">
<g id="graph0" class="graph" transform="scale(1 1) rotate(0) translate(4 608)">
<title>models_diagram</title>
<polygon fill="none" stroke="none" points="-4,4 -4,-608 532,-608 532,4 -4,4"/>
<!-- _diagram_info -->
<g id="node1" class="node"><title>_diagram_info</title>
<text text-anchor="start" x="8" y="-507.6" font-family="Times,serif" font-size="13.00">Models diagram</text>
<text text-anchor="start" x="8" y="-493.6" font-family="Times,serif" font-size="13.00">Date: Nov 28 2016 &#45; 21:25</text>
<text text-anchor="start" x="8" y="-479.6" font-family="Times,serif" font-size="13.00">Migration version: 20161119205921</text>
<text text-anchor="start" x="8" y="-465.6" font-family="Times,serif" font-size="13.00">Generated by RailRoady 1.5.2</text>
<text text-anchor="start" x="8" y="-451.6" font-family="Times,serif" font-size="13.00">http://railroady.prestonlee.com</text>
</g>
<!-- User -->
<g id="node2" class="node"><title>User</title>
<path fill="none" stroke="black" d="M244,-362.5C244,-362.5 384,-362.5 384,-362.5 390,-362.5 396,-368.5 396,-374.5 396,-374.5 396,-591.5 396,-591.5 396,-597.5 390,-603.5 384,-603.5 384,-603.5 244,-603.5 244,-603.5 238,-603.5 232,-597.5 232,-591.5 232,-591.5 232,-374.5 232,-374.5 232,-368.5 238,-362.5 244,-362.5"/>
<text text-anchor="middle" x="314" y="-588.3" font-family="Times,serif" font-size="14.00">User</text>
<polyline fill="none" stroke="black" points="232,-580.5 396,-580.5 "/>
<text text-anchor="start" x="240" y="-565.3" font-family="Times,serif" font-size="14.00">id :INTEGER</text>
<text text-anchor="start" x="240" y="-550.3" font-family="Times,serif" font-size="14.00">name :varchar</text>
<text text-anchor="start" x="240" y="-535.3" font-family="Times,serif" font-size="14.00">email :varchar</text>
<text text-anchor="start" x="240" y="-520.3" font-family="Times,serif" font-size="14.00">created_at :datetime</text>
<text text-anchor="start" x="240" y="-505.3" font-family="Times,serif" font-size="14.00">updated_at :datetime</text>
<text text-anchor="start" x="240" y="-490.3" font-family="Times,serif" font-size="14.00">password_digest :varchar</text>
<text text-anchor="start" x="240" y="-475.3" font-family="Times,serif" font-size="14.00">remember_digest :varchar</text>
<text text-anchor="start" x="240" y="-460.3" font-family="Times,serif" font-size="14.00">admin :boolean</text>
<text text-anchor="start" x="240" y="-445.3" font-family="Times,serif" font-size="14.00">accuracy :float</text>
<text text-anchor="start" x="240" y="-430.3" font-family="Times,serif" font-size="14.00">provider :varchar</text>
<text text-anchor="start" x="240" y="-415.3" font-family="Times,serif" font-size="14.00">uid :varchar</text>
<text text-anchor="start" x="240" y="-400.3" font-family="Times,serif" font-size="14.00">oauth_token :varchar</text>
<text text-anchor="start" x="240" y="-385.3" font-family="Times,serif" font-size="14.00">oauth_expires_at :datetime</text>
<text text-anchor="start" x="240" y="-370.3" font-family="Times,serif" font-size="14.00">group_admin :boolean</text>
</g>
<!-- Submission -->
<g id="node3" class="node"><title>Submission</title>
<path fill="none" stroke="black" d="M213.5,-1C213.5,-1 320.5,-1 320.5,-1 326.5,-1 332.5,-7 332.5,-13 332.5,-13 332.5,-125 332.5,-125 332.5,-131 326.5,-137 320.5,-137 320.5,-137 213.5,-137 213.5,-137 207.5,-137 201.5,-131 201.5,-125 201.5,-125 201.5,-13 201.5,-13 201.5,-7 207.5,-1 213.5,-1"/>
<text text-anchor="middle" x="267" y="-121.8" font-family="Times,serif" font-size="14.00">Submission</text>
<polyline fill="none" stroke="black" points="201.5,-114 332.5,-114 "/>
<text text-anchor="start" x="209.5" y="-98.8" font-family="Times,serif" font-size="14.00">id :INTEGER</text>
<text text-anchor="start" x="209.5" y="-83.8" font-family="Times,serif" font-size="14.00">disease_id :integer</text>
<text text-anchor="start" x="209.5" y="-68.8" font-family="Times,serif" font-size="14.00">user_id :integer</text>
<text text-anchor="start" x="209.5" y="-53.8" font-family="Times,serif" font-size="14.00">is_related :boolean</text>
<text text-anchor="start" x="209.5" y="-38.8" font-family="Times,serif" font-size="14.00">created_at :datetime</text>
<text text-anchor="start" x="209.5" y="-23.8" font-family="Times,serif" font-size="14.00">updated_at :datetime</text>
<text text-anchor="start" x="209.5" y="-8.8" font-family="Times,serif" font-size="14.00">reason :integer</text>
</g>
<!-- User&#45;&gt;Submission -->
<g id="edge1" class="edge"><title>User&#45;&gt;Submission</title>
<path fill="none" stroke="#5b0714" d="M247.237,-354.548C243.972,-345.053 241.16,-335.479 239,-326 223.989,-260.133 230.142,-240.972 239,-174 240.17,-165.151 241.878,-155.987 243.881,-146.932"/>
<ellipse fill="none" stroke="#5b0714" cx="248.603" cy="-358.375" rx="4.00001" ry="4.00001"/>
<polygon fill="#5b0714" stroke="#5b0714" points="243.887,-146.907 250.542,-138.192 245.023,-142.038 246.16,-137.169 246.16,-137.169 246.16,-137.169 245.023,-142.038 241.778,-136.146 243.887,-146.907 243.887,-146.907"/>
</g>
<!-- Disease -->
<g id="node4" class="node"><title>Disease</title>
<path fill="none" stroke="black" d="M260.5,-174.5C260.5,-174.5 367.5,-174.5 367.5,-174.5 373.5,-174.5 379.5,-180.5 379.5,-186.5 379.5,-186.5 379.5,-313.5 379.5,-313.5 379.5,-319.5 373.5,-325.5 367.5,-325.5 367.5,-325.5 260.5,-325.5 260.5,-325.5 254.5,-325.5 248.5,-319.5 248.5,-313.5 248.5,-313.5 248.5,-186.5 248.5,-186.5 248.5,-180.5 254.5,-174.5 260.5,-174.5"/>
<text text-anchor="middle" x="314" y="-310.3" font-family="Times,serif" font-size="14.00">Disease</text>
<polyline fill="none" stroke="black" points="248.5,-302.5 379.5,-302.5 "/>
<text text-anchor="start" x="256.5" y="-287.3" font-family="Times,serif" font-size="14.00">id :INTEGER</text>
<text text-anchor="start" x="256.5" y="-272.3" font-family="Times,serif" font-size="14.00">disease :varchar</text>
<text text-anchor="start" x="256.5" y="-257.3" font-family="Times,serif" font-size="14.00">accession :varchar</text>
<text text-anchor="start" x="256.5" y="-242.3" font-family="Times,serif" font-size="14.00">created_at :datetime</text>
<text text-anchor="start" x="256.5" y="-227.3" font-family="Times,serif" font-size="14.00">updated_at :datetime</text>
<text text-anchor="start" x="256.5" y="-212.3" font-family="Times,serif" font-size="14.00">related :integer</text>
<text text-anchor="start" x="256.5" y="-197.3" font-family="Times,serif" font-size="14.00">unrelated :integer</text>
<text text-anchor="start" x="256.5" y="-182.3" font-family="Times,serif" font-size="14.00">closed :boolean</text>
</g>
<!-- User&#45;&gt;Disease -->
<g id="edge2" class="edge"><title>User&#45;&gt;Disease</title>
<path fill="none" stroke="#f1b642" d="M314,-352.172C314,-346.65 314,-341.173 314,-335.792"/>
<polygon fill="#f1b642" stroke="#f1b642" points="314,-352.44 309.5,-362.44 314,-357.44 314,-362.44 314,-362.44 314,-362.44 314,-357.44 318.5,-362.44 314,-352.44 314,-352.44"/>
<polygon fill="#f1b642" stroke="#f1b642" points="314,-335.575 318.5,-325.575 314,-330.575 314,-325.575 314,-325.575 314,-325.575 314,-330.575 309.5,-325.576 314,-335.575 314,-335.575"/>
</g>
<!-- Group -->
<g id="node5" class="node"><title>Group</title>
<path fill="none" stroke="black" d="M409.5,-182C409.5,-182 516.5,-182 516.5,-182 522.5,-182 528.5,-188 528.5,-194 528.5,-194 528.5,-306 528.5,-306 528.5,-312 522.5,-318 516.5,-318 516.5,-318 409.5,-318 409.5,-318 403.5,-318 397.5,-312 397.5,-306 397.5,-306 397.5,-194 397.5,-194 397.5,-188 403.5,-182 409.5,-182"/>
<text text-anchor="middle" x="463" y="-302.8" font-family="Times,serif" font-size="14.00">Group</text>
<polyline fill="none" stroke="black" points="397.5,-295 528.5,-295 "/>
<text text-anchor="start" x="405.5" y="-279.8" font-family="Times,serif" font-size="14.00">id :INTEGER</text>
<text text-anchor="start" x="405.5" y="-264.8" font-family="Times,serif" font-size="14.00">name :varchar</text>
<text text-anchor="start" x="405.5" y="-249.8" font-family="Times,serif" font-size="14.00">description :text</text>
<text text-anchor="start" x="405.5" y="-234.8" font-family="Times,serif" font-size="14.00">group_level :varchar</text>
<text text-anchor="start" x="405.5" y="-219.8" font-family="Times,serif" font-size="14.00">created_at :datetime</text>
<text text-anchor="start" x="405.5" y="-204.8" font-family="Times,serif" font-size="14.00">updated_at :datetime</text>
<text text-anchor="start" x="405.5" y="-189.8" font-family="Times,serif" font-size="14.00">admin_uid :integer</text>
</g>
<!-- User&#45;&gt;Group -->
<g id="edge3" class="edge"><title>User&#45;&gt;Group</title>
<path fill="none" stroke="#642d71" d="M396.62,-353.911C402.563,-344.698 408.436,-335.592 414.086,-326.833"/>
<polygon fill="#642d71" stroke="#642d71" points="396.539,-354.037 387.337,-360.001 393.829,-358.238 391.119,-362.44 391.119,-362.44 391.119,-362.44 393.829,-358.238 394.9,-364.879 396.539,-354.037 396.539,-354.037"/>
<polygon fill="#642d71" stroke="#642d71" points="414.235,-326.601 423.438,-320.637 416.946,-322.4 419.656,-318.198 419.656,-318.198 419.656,-318.198 416.946,-322.4 415.874,-315.759 414.235,-326.601 414.235,-326.601"/>
</g>
<!-- Disease&#45;&gt;Submission -->
<g id="edge4" class="edge"><title>Disease&#45;&gt;Submission</title>
<path fill="none" stroke="#4ac4f4" d="M292.341,-166.51C290.642,-160.04 288.93,-153.52 287.241,-147.087"/>
<ellipse fill="none" stroke="#4ac4f4" cx="293.392" cy="-170.515" rx="4.00001" ry="4.00001"/>
<polygon fill="#4ac4f4" stroke="#4ac4f4" points="287.15,-146.742 288.963,-135.927 285.88,-141.906 284.611,-137.07 284.611,-137.07 284.611,-137.07 285.88,-141.906 280.258,-138.213 287.15,-146.742 287.15,-146.742"/>
</g>
</g>
</svg>
