<?xml version="1.0" encoding="UTF-8" standalone="no"?>
<!DOCTYPE svg PUBLIC "-//W3C//DTD SVG 1.1//EN"
 "http://www.w3.org/Graphics/SVG/1.1/DTD/svg11.dtd">
<!-- Generated by graphviz version 2.36.0 (20140111.2315)
 -->
<!-- Title: models_diagram Pages: 1 -->
<svg width="389pt" height="230pt"
 viewBox="0.00 0.00 389.00 230.00" xmlns="http://www.w3.org/2000/svg" xmlns:xlink="http://www.w3.org/1999/xlink">
<g id="graph0" class="graph" transform="scale(1 1) rotate(0) translate(4 226)">
<title>models_diagram</title>
<polygon fill="none" stroke="none" points="-4,4 -4,-226 385,-226 385,4 -4,4"/>
<!-- _diagram_info -->
<g id="node1" class="node"><title>_diagram_info</title>
<text text-anchor="start" x="8" y="-207.6" font-family="Times,serif" font-size="13.00">Models diagram</text>
<text text-anchor="start" x="8" y="-193.6" font-family="Times,serif" font-size="13.00">Date: Nov 28 2016 &#45; 21:25</text>
<text text-anchor="start" x="8" y="-179.6" font-family="Times,serif" font-size="13.00">Migration version: 20161119205921</text>
<text text-anchor="start" x="8" y="-165.6" font-family="Times,serif" font-size="13.00">Generated by RailRoady 1.5.2</text>
<text text-anchor="start" x="8" y="-151.6" font-family="Times,serif" font-size="13.00">http://railroady.prestonlee.com</text>
</g>
<!-- User -->
<g id="node2" class="node"><title>User</title>
<ellipse fill="none" stroke="black" cx="259" cy="-183" rx="26.949" ry="18"/>
<text text-anchor="middle" x="259" y="-179.3" font-family="Times,serif" font-size="14.00">User</text>
</g>
<!-- Submission -->
<g id="node4" class="node"><title>Submission</title>
<ellipse fill="none" stroke="black" cx="226" cy="-18" rx="51.4931" ry="18"/>
<text text-anchor="middle" x="226" y="-14.3" font-family="Times,serif" font-size="14.00">Submission</text>
</g>
<!-- User&#45;&gt;Submission -->
<g id="edge1" class="edge"><title>User&#45;&gt;Submission</title>
<path fill="none" stroke="#abbb23" d="M240.839,-160.692C230.154,-146.71 217.66,-127.467 212,-108 206.022,-87.4391 210.441,-63.4182 215.847,-45.5171"/>
<ellipse fill="none" stroke="#abbb23" cx="243.424" cy="-163.97" rx="4.00002" ry="4.00002"/>
<polygon fill="#abbb23" stroke="#abbb23" points="215.85,-45.5071 223.255,-37.4194 217.416,-40.7586 218.982,-36.0101 218.982,-36.0101 218.982,-36.0101 217.416,-40.7586 214.708,-34.6008 215.85,-45.5071 215.85,-45.5071"/>
</g>
<!-- Disease -->
<g id="node5" class="node"><title>Disease</title>
<ellipse fill="none" stroke="black" cx="259" cy="-90" rx="38.0212" ry="18"/>
<text text-anchor="middle" x="259" y="-86.3" font-family="Times,serif" font-size="14.00">Disease</text>
</g>
<!-- User&#45;&gt;Disease -->
<g id="edge2" class="edge"><title>User&#45;&gt;Disease</title>
<path fill="none" stroke="#172482" d="M259,-154.549C259,-143.083 259,-129.792 259,-118.339"/>
<polygon fill="#172482" stroke="#172482" points="259,-154.884 254.5,-164.884 259,-159.884 259,-164.884 259,-164.884 259,-164.884 259,-159.884 263.5,-164.884 259,-154.884 259,-154.884"/>
<polygon fill="#172482" stroke="#172482" points="259,-118.04 263.5,-108.04 259,-113.04 259,-108.04 259,-108.04 259,-108.04 259,-113.04 254.5,-108.04 259,-118.04 259,-118.04"/>
</g>
<!-- Group -->
<g id="node6" class="node"><title>Group</title>
<ellipse fill="none" stroke="black" cx="348" cy="-90" rx="33.2209" ry="18"/>
<text text-anchor="middle" x="348" y="-86.3" font-family="Times,serif" font-size="14.00">Group</text>
</g>
<!-- User&#45;&gt;Group -->
<g id="edge3" class="edge"><title>User&#45;&gt;Group</title>
<path fill="none" stroke="#e79468" d="M279.852,-159.788C284.791,-154.583 290.06,-149.075 295,-144 304.883,-133.846 315.948,-122.741 325.401,-113.331"/>
<polygon fill="#e79468" stroke="#e79468" points="279.796,-159.847 269.657,-164.022 276.362,-163.48 272.927,-167.114 272.927,-167.114 272.927,-167.114 276.362,-163.48 276.197,-170.205 279.796,-159.847 279.796,-159.847"/>
<polygon fill="#e79468" stroke="#e79468" points="325.487,-113.245 335.754,-109.392 329.035,-109.722 332.583,-106.199 332.583,-106.199 332.583,-106.199 329.035,-109.722 329.412,-103.006 325.487,-113.245 325.487,-113.245"/>
</g>
<!-- Dataset -->
<g id="node3" class="node"><title>Dataset</title>
<ellipse fill="none" stroke="black" cx="341" cy="-183" rx="37.0701" ry="18"/>
<text text-anchor="middle" x="341" y="-179.3" font-family="Times,serif" font-size="14.00">Dataset</text>
</g>
<!-- Disease&#45;&gt;Submission -->
<g id="edge4" class="edge"><title>Disease&#45;&gt;Submission</title>
<path fill="none" stroke="#6c0f1e" d="M247.551,-64.7144C244.528,-58.3016 241.254,-51.3577 238.193,-44.8648"/>
<ellipse fill="none" stroke="#6c0f1e" cx="249.306" cy="-68.4368" rx="4.00002" ry="4.00002"/>
<polygon fill="#6c0f1e" stroke="#6c0f1e" points="238.179,-44.8343 237.985,-33.8701 236.047,-40.3116 233.915,-35.789 233.915,-35.789 233.915,-35.789 236.047,-40.3116 229.844,-37.7079 238.179,-44.8343 238.179,-44.8343"/>
</g>
</g>
</svg>
